<svg width="750" height="160" viewBox="0 0 750 160" fill="none" xmlns="http://www.w3.org/2000/svg">
<path d="M56.0004 52.209V66.329C55.9919 66.8314 56.1098 67.3279 56.3431 67.7729C56.5765 68.2178 56.9178 68.5971 57.3359 68.8758C57.754 69.1545 58.2353 69.3238 58.7358 69.368C59.2364 69.4122 59.74 69.3301 60.2004 69.129L91.8004 55.959C92.2609 55.758 92.7645 55.6758 93.265 55.72C93.7655 55.7643 94.2469 55.9335 94.665 56.2122C95.083 56.4909 95.4244 56.8702 95.6577 57.3152C95.8911 57.7602 96.0089 58.2566 96.0004 58.759V70.869L131.8 55.959C132.261 55.758 132.765 55.6758 133.265 55.72C133.766 55.7643 134.247 55.9335 134.665 56.2122C135.083 56.4909 135.424 56.8702 135.658 57.3152C135.891 57.7602 136.009 58.2566 136 58.759V109.209C136 114.513 133.893 119.6 130.143 123.351C126.392 127.102 121.305 129.209 116 129.209H56.0004C50.6961 129.209 45.609 127.102 41.8583 123.351C38.1076 119.6 36.0004 114.513 36.0004 109.209H113C113.796 109.209 114.559 108.893 115.122 108.33C115.684 107.768 116 107.005 116 106.209V92.089C116.009 91.5866 115.891 91.0902 115.658 90.6452C115.424 90.2002 115.083 89.8209 114.665 89.5422C114.247 89.2635 113.766 89.0943 113.265 89.05C112.765 89.0058 112.261 89.088 111.8 89.289L80.2004 102.459C79.74 102.66 79.2364 102.742 78.7358 102.698C78.2353 102.654 77.754 102.485 77.3359 102.206C76.9178 101.927 76.5765 101.548 76.3431 101.103C76.1098 100.658 75.9919 100.161 76.0004 99.659V92.089C76.0089 91.5866 75.8911 91.0902 75.6577 90.6452C75.4244 90.2002 75.083 89.8209 74.665 89.5422C74.2469 89.2635 73.7655 89.0943 73.265 89.05C72.7645 89.0058 72.2609 89.088 71.8004 89.289L40.2004 102.459C39.74 102.66 39.2364 102.742 38.7358 102.698C38.2353 102.654 37.754 102.485 37.3359 102.206C36.9178 101.927 36.5765 101.548 36.3431 101.103C36.1098 100.658 35.9919 100.161 36.0004 99.659V49.209C36.0004 43.9047 38.1076 38.8176 41.8583 35.0669C45.609 31.3162 50.6961 29.209 56.0004 29.209L116 29.209C121.305 29.209 126.392 31.3162 130.143 35.0669C133.893 38.8176 136 43.9047 136 49.209H59.0004C58.2048 49.209 57.4417 49.5251 56.8791 50.0877C56.3165 50.6503 56.0004 51.4134 56.0004 52.209V52.209Z" fill="url(#paint0_linear)"/>
<path d="M184.551 47.958H168.458V112.209H184.551V84.863C184.551 78.208 184.43 72.4 187.697 67.197C190.238 63.204 194.11 61.026 198.587 61.026C208.388 61.026 209.477 69.133 209.477 81.838V112.209H225.57V68.286C225.57 54.492 215.527 46.264 203.548 46.264C196.409 46.264 190.722 49.289 184.551 54.492V47.958Z" fill="#2C2C2C"/>
<path d="M282.297 93.333C277.82 97.689 273.222 99.625 266.325 99.625C257.129 99.625 249.869 94.301 248.296 84.742H300.084C300.084 83.29 300.205 82.564 300.205 81.112C300.205 60.784 286.411 46.264 266.083 46.264C245.392 46.264 232.687 62.478 232.687 80.023C232.687 98.899 245.876 113.903 266.325 113.903C279.877 113.903 288.952 109.547 295.849 99.746L282.297 93.333ZM249.022 72.037C252.168 63.93 258.339 59.937 266.325 59.937C274.916 59.937 281.813 64.535 283.991 72.037H249.022Z" fill="#2C2C2C"/>
<path d="M320.732 47.958H306.817V112.209H322.91V86.194C322.91 82.685 322.91 78.692 323.031 75.183C323.394 65.745 327.024 60.421 331.622 60.421C333.316 60.421 335.131 61.147 336.341 61.752L341.302 47.958C339.729 47.232 337.672 46.264 334.284 46.264C328.96 46.264 323.757 49.41 320.732 56.065V47.958Z" fill="#2C2C2C"/>
<path d="M346.945 104.707C351.543 110.636 358.803 113.903 365.942 113.903C377.558 113.903 385.302 104.949 385.302 94.906C385.302 83.29 377.074 80.023 362.312 71.432C359.408 69.738 357.351 66.108 357.351 62.841C357.351 58.001 361.707 54.25 367.031 54.25C372.234 54.25 376.106 56.67 379.978 60.421L385.302 54.976C379.857 49.652 374.533 46.264 367.515 46.264C357.714 46.264 349.849 53.161 349.849 63.325C349.849 74.578 357.351 78.087 372.113 86.315C375.259 88.009 377.437 91.518 377.437 95.269C377.437 101.319 371.871 105.917 365.579 105.917C360.739 105.917 356.262 103.376 352.148 98.778L346.945 104.707Z" fill="#2C2C2C"/>
<path d="M416.967 107.369L402.625 135.683H411.337L451.694 47.958H442.861L421.444 97.447L399.301 47.958H390.589L416.967 107.369Z" fill="#2C2C2C"/>
<path d="M453.888 104.707C458.486 110.636 465.746 113.903 472.885 113.903C484.501 113.903 492.245 104.949 492.245 94.906C492.245 83.29 484.017 80.023 469.255 71.432C466.351 69.738 464.294 66.108 464.294 62.841C464.294 58.001 468.65 54.25 473.974 54.25C479.177 54.25 483.049 56.67 486.921 60.421L492.245 54.976C486.8 49.652 481.476 46.264 474.458 46.264C464.657 46.264 456.792 53.161 456.792 63.325C456.792 74.578 464.294 78.087 479.056 86.315C482.202 88.009 484.38 91.518 484.38 95.269C484.38 101.319 478.814 105.917 472.522 105.917C467.682 105.917 463.205 103.376 459.091 98.778L453.888 104.707Z" fill="#2C2C2C"/>
<path d="M511.81 47.958H500.436V55.218H511.81V112.209H520.038V55.218H533.227V47.958H520.038V24H511.81V47.958Z" fill="#2C2C2C"/>
<path d="M606.295 80.749C606.053 59.453 591.291 46.264 573.02 46.264C552.934 46.264 539.987 62.72 539.987 80.265C539.987 97.447 552.208 113.782 573.504 113.782C587.54 113.782 597.583 107.369 604.117 94.543L597.22 90.913C592.501 98.657 586.088 106.28 572.657 106.28C558.863 106.28 548.82 95.511 548.457 80.749H606.295ZM549.304 73.489C553.055 60.421 561.646 54.25 573.141 54.25C584.273 54.25 593.832 60.179 597.22 73.489H549.304Z" fill="#2C2C2C"/>
<path d="M671.199 84.137C671.199 78.208 671.441 72.521 673.498 67.318C676.765 59.09 683.783 54.25 691.769 54.25C700.481 54.25 705.926 60.542 706.289 66.229C706.41 68.649 707.015 72.4 707.015 77.119V112.209H715.243V74.094C715.243 55.823 706.652 46.264 693.342 46.264C683.904 46.264 675.434 51.467 669.747 61.752C666.238 51.346 659.22 46.264 649.419 46.264C640.223 46.264 633.084 50.741 627.397 58.969V47.958H619.169V112.209H627.397V84.984C627.397 75.304 628.244 67.681 632.842 61.752C636.472 57.033 642.159 54.25 647.846 54.25C656.316 54.25 662.003 60.3 662.366 67.318C662.487 70.222 662.971 74.336 662.971 79.297V112.209H671.199V84.137Z" fill="#2C2C2C"/>
<defs>
<linearGradient id="paint0_linear" x1="43.5" y1="35.209" x2="119.5" y2="129.209" gradientUnits="userSpaceOnUse">
<stop stop-color="#46FEFF"/>
<stop offset="0.583333" stop-color="#736CFF"/>
<stop offset="1" stop-color="#FD4EFE"/>
</linearGradient>
</defs>
</svg>
