<svg fill="none" height="160" viewBox="0 0 750 160" width="750" xmlns="http://www.w3.org/2000/svg" xmlns:xlink="http://www.w3.org/1999/xlink"><linearGradient id="a" gradientUnits="userSpaceOnUse" x1="43.5" x2="119.5" y1="35.209" y2="129.209"><stop offset="0" stop-color="#4cfeff"/><stop offset=".583333" stop-color="#564fff"/><stop offset="1" stop-color="#fd4efe"/></linearGradient><path d="m56.0004 52.209v14.12c-.0085.5024.1094.9989.3427 1.4439.2334.4449.5747.8242.9928 1.1029s.8994.448 1.3999.4922c.5006.0442 1.0042-.0379 1.4646-.239l31.6-13.17c.4605-.201.9641-.2832 1.4646-.239.5005.0443.9819.2135 1.4.4922.418.2787.7594.658.9927 1.103.2334.445.3512.9414.3427 1.4438v12.11l35.7996-14.91c.461-.201.965-.2832 1.465-.239.501.0443.982.2135 1.4.4922s.759.658.993 1.103c.233.445.351.9414.342 1.4438v50.45c0 5.304-2.107 10.391-5.857 14.142-3.751 3.751-8.838 5.858-14.143 5.858h-59.9996c-5.3043 0-10.3914-2.107-14.1421-5.858s-5.8579-8.838-5.8579-14.142h76.9996c.796 0 1.559-.316 2.122-.879.562-.562.878-1.325.878-2.121v-14.12c.009-.5024-.109-.9988-.342-1.4438-.234-.445-.575-.8243-.993-1.103s-.899-.4479-1.4-.4922c-.5-.0442-1.004.038-1.465.239l-31.5996 13.17c-.4604.201-.964.283-1.4646.239-.5005-.044-.9818-.213-1.3999-.492s-.7594-.658-.9928-1.103c-.2333-.445-.3512-.942-.3427-1.444v-7.57c.0085-.5024-.1093-.9988-.3427-1.4438-.2333-.445-.5747-.8243-.9927-1.103-.4181-.2787-.8995-.4479-1.4-.4922-.5005-.0442-1.0041.038-1.4646.239l-31.6 13.17c-.4604.201-.964.283-1.4646.239-.5005-.044-.9818-.213-1.3999-.492s-.7594-.658-.9928-1.103c-.2333-.445-.3512-.942-.3427-1.444v-50.45c0-5.3043 2.1072-10.3914 5.8579-14.1421s8.8378-5.8579 14.1421-5.8579h59.9996c5.305 0 10.392 2.1072 14.143 5.8579 3.75 3.7507 5.857 8.8378 5.857 14.1421h-76.9996c-.7956 0-1.5587.3161-2.1213.8787s-.8787 1.3257-.8787 2.1213z" fill="url(#a)"/><g fill="#fff"><path d="m184.551 47.958h-16.093v64.251h16.093v-27.346c0-6.655-.121-12.463 3.146-17.666 2.541-3.993 6.413-6.171 10.89-6.171 9.801 0 10.89 8.107 10.89 20.812v30.371h16.093v-43.923c0-13.794-10.043-22.022-22.022-22.022-7.139 0-12.826 3.025-18.997 8.228z"/><path d="m285.297 93.333c-4.477 4.356-9.075 6.292-15.972 6.292-9.196 0-16.456-5.324-18.029-14.883h51.788c0-1.452.121-2.178.121-3.63 0-20.328-13.794-34.848-34.122-34.848-20.691 0-33.396 16.214-33.396 33.759 0 18.876 13.189 33.88 33.638 33.88 13.552 0 22.627-4.356 29.524-14.157zm-33.275-21.296c3.146-8.107 9.317-12.1 17.303-12.1 8.591 0 15.488 4.598 17.666 12.1z"/><path d="m323.732 47.958h-13.915v64.251h16.093v-26.015c0-3.509 0-7.502.121-11.011.363-9.438 3.993-14.762 8.591-14.762 1.694 0 3.509.726 4.719 1.331l4.961-13.794c-1.573-.726-3.63-1.694-7.018-1.694-5.324 0-10.527 3.146-13.552 9.801z"/><path d="m344.945 104.707c4.598 5.929 11.858 9.196 18.997 9.196 11.616 0 19.36-8.954 19.36-18.997 0-11.616-8.228-14.883-22.99-23.474-2.904-1.694-4.961-5.324-4.961-8.591 0-4.84 4.356-8.591 9.68-8.591 5.203 0 9.075 2.42 12.947 6.171l5.324-5.445c-5.445-5.324-10.769-8.712-17.787-8.712-9.801 0-17.666 6.897-17.666 17.061 0 11.253 7.502 14.762 22.264 22.99 3.146 1.694 5.324 5.203 5.324 8.954 0 6.05-5.566 10.648-11.858 10.648-4.84 0-9.317-2.541-13.431-7.139z"/><path d="m414.967 107.369-12.342 28.314h8.712l38.357-87.725h-8.833l-21.417 49.489-22.143-49.489h-8.712z"/><path d="m451.888 104.707c4.598 5.929 11.858 9.196 18.997 9.196 11.616 0 19.36-8.954 19.36-18.997 0-11.616-8.228-14.883-22.99-23.474-2.904-1.694-4.961-5.324-4.961-8.591 0-4.84 4.356-8.591 9.68-8.591 5.203 0 9.075 2.42 12.947 6.171l5.324-5.445c-5.445-5.324-10.769-8.712-17.787-8.712-9.801 0-17.666 6.897-17.666 17.061 0 11.253 7.502 14.762 22.264 22.99 3.146 1.694 5.324 5.203 5.324 8.954 0 6.05-5.566 10.648-11.858 10.648-4.84 0-9.317-2.541-13.431-7.139z"/><path d="m509.81 47.958h-11.374v7.26h11.374v56.991h8.228v-56.991h13.189v-7.26h-13.189v-23.958h-8.228z"/><path d="m604.295 80.749c-.242-21.296-15.004-34.485-33.275-34.485-20.086 0-33.033 16.456-33.033 34.001 0 17.182 12.221 33.517 33.517 33.517 14.036 0 24.079-6.413 30.613-19.239l-6.897-3.63c-4.719 7.744-11.132 15.367-24.563 15.367-13.794 0-23.837-10.769-24.2-25.531zm-56.991-7.26c3.751-13.068 12.342-19.239 23.837-19.239 11.132 0 20.691 5.929 24.079 19.239z"/><path d="m669.199 84.137c0-5.929.242-11.616 2.299-16.819 3.267-8.228 10.285-13.068 18.271-13.068 8.712 0 14.157 6.292 14.52 11.979.121 2.42.726 6.171.726 10.89v35.09h8.228v-38.115c0-18.271-8.591-27.83-21.901-27.83-9.438 0-17.908 5.203-23.595 15.488-3.509-10.406-10.527-15.488-20.328-15.488-9.196 0-16.335 4.477-22.022 12.705v-11.011h-8.228v64.251h8.228v-27.225c0-9.68.847-17.303 5.445-23.232 3.63-4.719 9.317-7.502 15.004-7.502 8.47 0 14.157 6.05 14.52 13.068.121 2.904.605 7.018.605 11.979v32.912h8.228z"/></g></svg>